  0
SECTION
  2
HEADER
  9
$ANGBASE
  50
0.0
  9
$ANGDIR
  70
1
  9
$MEASUREMENT
  70
1
  0
ENDSEC
  0
SECTION
  2
TABLES
  0
TABLE
  2
LTYPE
  70
4
  0
LTYPE
  5
40F
  2
CONTINUOUS
  70
0
  3
Solid line
  72
65
  73
0
  40
0.0
  0
LTYPE
  5
410
  2
DASHDOT
 70
0
  3
Dash Dot ____ _ ____ _
 72
65
 73
4
 40
2.0
 49
1.25
 49
-0.25
 49
0.25
 49
-0.25
  0
LTYPE
  5
411
  2
DASHED
 70
0
  3
Dashed __ __ __ __ __
 72
65
 73
2
 40
0.75
 49
0.5
 49
-0.25
  0
LTYPE
  5
43B
  2
DOTTED
 70
0
  3
Dotted .  .  .  .
 72
65
 73
2
 40
0.2
 49
0.0
 49
-0.2
  0
ENDTAB
  0
TABLE
  2
STYLE
  70
4
  0
STYLE
  2
KICAD
  70
0
  40
0
  41
1
  42
1
  50
0
  71
0
  3
isocp.shx
  0
STYLE
  2
KICADB
  70
0
  40
0
  41
1
  42
1
  50
0
  71
0
  3
isocp.shx
  0
STYLE
  2
KICADI
  70
0
  40
0
  41
1
  42
1
  50
15
  71
0
  3
isocp.shx
  0
STYLE
  2
KICADBI
  70
0
  40
0
  41
1
  42
1
  50
15
  71
0
  3
isocp.shx
  0
ENDTAB
  0
TABLE
  2
LAYER
  70
1
  0
LAYER
  2
BLACK
  70
0
  62
7
  6
CONTINUOUS
  0
ENDTAB
  0
ENDSEC
  0
SECTION
  2
ENTITIES
0
ARC
8
BLACK
10
208.6378259999999898
20
-156.1900629999999808
40
0.5
50
-90.00000000
51
-0.00000000
0
ARC
8
BLACK
10
208.6378259999999898
20
-150.3400629999999865
40
0.5
50
0.00000000
51
90.00000000
0
ARC
8
BLACK
10
208.2878259999999955
20
-149.3400629999999865
40
0.5
50
-180.00000000
51
-90.00000000
0
ARC
8
BLACK
10
207.2878259999999955
20
-145.6900629999999808
40
0.5
50
0.00000000
51
90.00000000
0
ARC
8
BLACK
10
203.6878260000000012
20
-149.3400629999999865
40
0.5
50
-90.00000000
51
-0.00000000
0
ARC
8
BLACK
10
204.6878260000000012
20
-145.6900629999999808
40
0.5
50
90.00000000
51
180.00000000
0
ARC
8
BLACK
10
203.3378259999999784
20
-156.1900629999999808
40
0.5
50
-180.00000000
51
-90.00000000
0
ARC
8
BLACK
10
203.3378259999999784
20
-150.3400629999999865
40
0.5
50
90.00000000
51
180.00000000
0
ARC
8
BLACK
10
184.6378249999999923
20
-156.1900619999999833
40
0.500001000001
50
-89.99988541
51
-0.00011459
0
ARC
8
BLACK
10
184.6378249999999923
20
-150.3400639999999839
40
0.500001000001
50
0.00011459
51
89.99988541
0
ARC
8
BLACK
10
184.2878269999999929
20
-149.340061999999989
40
0.500001000001
50
-179.99988541
51
-90.00011459
0
ARC
8
BLACK
10
183.287824999999998
20
-145.6900640000000067
40
0.500001000001
50
0.00011459
51
89.99988541
0
ARC
8
BLACK
10
179.6878250000000037
20
-149.340061999999989
40
0.500001000001
50
-89.99988541
51
-0.00011459
0
ARC
8
BLACK
10
180.6878269999999986
20
-145.6900640000000067
40
0.500001000001
50
90.00011459
51
179.99988541
0
ARC
8
BLACK
10
179.3378270000000043
20
-156.1900619999999833
40
0.500001000001
50
-179.99988541
51
-90.00011459
0
ARC
8
BLACK
10
179.3378270000000043
20
-150.3400639999999839
40
0.500001000001
50
90.00011459
51
179.99988541
0
LINE
8
BLACK
6
CONTINUOUS
10
209.1378259999999898
20
-156.1900629999999808
11
209.1378259999999898
21
-150.3400629999999865
0
LINE
8
BLACK
6
CONTINUOUS
10
208.6378259999999898
20
-156.6900629999999808
11
203.3378259999999784
21
-156.6900629999999808
0
LINE
8
BLACK
6
CONTINUOUS
10
208.6378259999999898
20
-149.8400629999999865
11
208.2878259999999955
21
-149.8400629999999865
0
LINE
8
BLACK
6
CONTINUOUS
10
207.7878259999999955
20
-149.3400629999999865
11
207.7878259999999955
21
-145.6900629999999808
0
LINE
8
BLACK
6
CONTINUOUS
10
207.2878259999999955
20
-145.1900629999999808
11
204.6878260000000012
21
-145.1900629999999808
0
LINE
8
BLACK
6
CONTINUOUS
10
204.1878260000000012
20
-149.3400629999999865
11
204.1878260000000012
21
-145.6900629999999808
0
LINE
8
BLACK
6
CONTINUOUS
10
203.3378259999999784
20
-149.8400629999999865
11
203.6878260000000012
21
-149.8400629999999865
0
LINE
8
BLACK
6
CONTINUOUS
10
202.8378259999999784
20
-156.1900629999999808
11
202.8378259999999784
21
-150.3400629999999865
0
LINE
8
BLACK
6
CONTINUOUS
10
185.1378259999999898
20
-156.1900629999999808
11
185.1378259999999898
21
-150.3400629999999865
0
LINE
8
BLACK
6
CONTINUOUS
10
184.6378259999999898
20
-149.8400629999999865
11
184.2878259999999955
21
-149.8400629999999865
0
LINE
8
BLACK
6
CONTINUOUS
10
183.7878259999999955
20
-149.3400629999999865
11
183.7878259999999955
21
-145.6900629999999808
0
LINE
8
BLACK
6
CONTINUOUS
10
180.6878260000000012
20
-145.1900629999999808
11
183.2878259999999955
21
-145.1900629999999808
0
LINE
8
BLACK
6
CONTINUOUS
10
180.1878260000000012
20
-149.3400629999999865
11
180.1878260000000012
21
-145.6900629999999808
0
LINE
8
BLACK
6
CONTINUOUS
10
179.3378259999999784
20
-156.6900629999999808
11
184.6378259999999898
21
-156.6900629999999808
0
LINE
8
BLACK
6
CONTINUOUS
10
179.3378259999999784
20
-149.8400629999999865
11
179.6878260000000012
21
-149.8400629999999865
0
LINE
8
BLACK
6
CONTINUOUS
10
178.8378259999999784
20
-156.1900629999999808
11
178.8378259999999784
21
-150.3400629999999865
0
ARC
8
BLACK
10
238.6878260000000012
20
-143.0900629999999865
40
0.5
50
-90.00000000
51
-0.00000000
0
ARC
8
BLACK
10
238.6878260000000012
20
-130.1900629999999808
40
0.5
50
0.00000000
51
90.00000000
0
ARC
8
BLACK
10
225.7878269999999929
20
-143.090061999999989
40
0.500001000001
50
-179.99988541
51
-90.00011459
0
ARC
8
BLACK
10
225.7878269999999929
20
-130.1900640000000067
40
0.500001000001
50
90.00011459
51
179.99988541
0
LINE
8
BLACK
6
CONTINUOUS
10
239.1878260000000012
20
-143.0900629999999865
11
239.1878260000000012
21
-130.1900629999999808
0
LINE
8
BLACK
6
CONTINUOUS
10
238.6878260000000012
20
-129.6900629999999808
11
225.7878259999999955
21
-129.6900629999999808
0
LINE
8
BLACK
6
CONTINUOUS
10
225.7878259999999955
20
-143.5900629999999865
11
238.6878260000000012
21
-143.5900629999999865
0
LINE
8
BLACK
6
CONTINUOUS
10
225.2878259999999955
20
-130.1900629999999808
11
225.2878259999999955
21
-143.0900629999999865
0
LINE
8
BLACK
6
CONTINUOUS
10
229.7878259999999955
20
-96.190062999999995
11
229.7878259999999955
21
-109.0900630000000007
0
LINE
8
BLACK
6
CONTINUOUS
10
230.2878259999999955
20
-109.5900630000000007
11
243.1878260000000012
21
-109.5900630000000007
0
LINE
8
BLACK
6
CONTINUOUS
10
243.1878260000000012
20
-95.690062999999995
11
230.2878259999999955
21
-95.690062999999995
0
LINE
8
BLACK
6
CONTINUOUS
10
243.6878260000000012
20
-109.0900630000000007
11
243.6878260000000012
21
-96.190062999999995
0
ARC
8
BLACK
10
230.2878269999999929
20
-96.1900639999999925
40
0.500001000001
50
90.00011459
51
179.99988541
0
ARC
8
BLACK
10
230.2878269999999929
20
-109.090061999999989
40
0.500001000001
50
-179.99988541
51
-90.00011459
0
ARC
8
BLACK
10
243.1878260000000012
20
-96.190062999999995
40
0.5
50
0.00000000
51
90.00000000
0
ARC
8
BLACK
10
243.1878260000000012
20
-109.0900630000000007
40
0.5
50
-90.00000000
51
-0.00000000
0
LINE
8
BLACK
6
CONTINUOUS
10
153.2878259999999955
20
-130.1900629999999808
11
153.2878259999999955
21
-143.0900629999999865
0
LINE
8
BLACK
6
CONTINUOUS
10
153.7878259999999955
20
-143.5900629999999865
11
166.6878260000000012
21
-143.5900629999999865
0
LINE
8
BLACK
6
CONTINUOUS
10
166.6878260000000012
20
-129.6900629999999808
11
153.7878259999999955
21
-129.6900629999999808
0
LINE
8
BLACK
6
CONTINUOUS
10
167.1878260000000012
20
-143.0900629999999865
11
167.1878260000000012
21
-130.1900629999999808
0
ARC
8
BLACK
10
153.7878269999999929
20
-130.1900640000000067
40
0.500001000001
50
90.00011459
51
179.99988541
0
ARC
8
BLACK
10
153.7878269999999929
20
-143.090061999999989
40
0.500001000001
50
-179.99988541
51
-90.00011459
0
ARC
8
BLACK
10
166.6878260000000012
20
-130.1900629999999808
40
0.5
50
0.00000000
51
90.00000000
0
ARC
8
BLACK
10
166.6878260000000012
20
-143.0900629999999865
40
0.5
50
-90.00000000
51
-0.00000000
0
LINE
8
BLACK
6
CONTINUOUS
10
157.7878259999999955
20
-147.1900629999999808
11
157.7878259999999955
21
-160.0900629999999865
0
LINE
8
BLACK
6
CONTINUOUS
10
158.2878259999999955
20
-160.5900629999999865
11
171.1878260000000012
21
-160.5900629999999865
0
LINE
8
BLACK
6
CONTINUOUS
10
171.1878260000000012
20
-146.6900629999999808
11
158.2878259999999955
21
-146.6900629999999808
0
LINE
8
BLACK
6
CONTINUOUS
10
171.6878260000000012
20
-160.0900629999999865
11
171.6878260000000012
21
-147.1900629999999808
0
ARC
8
BLACK
10
158.2878269999999929
20
-147.1900640000000067
40
0.500001000001
50
90.00011459
51
179.99988541
0
ARC
8
BLACK
10
158.2878269999999929
20
-160.090061999999989
40
0.500001000001
50
-179.99988541
51
-90.00011459
0
ARC
8
BLACK
10
171.1878260000000012
20
-147.1900629999999808
40
0.5
50
0.00000000
51
90.00000000
0
ARC
8
BLACK
10
171.1878260000000012
20
-160.0900629999999865
40
0.5
50
-90.00000000
51
-0.00000000
0
LINE
8
BLACK
6
CONTINUOUS
10
157.7878259999999955
20
-96.190062999999995
11
157.7878259999999955
21
-109.0900630000000007
0
LINE
8
BLACK
6
CONTINUOUS
10
158.2878259999999955
20
-109.5900630000000007
11
171.1878260000000012
21
-109.5900630000000007
0
LINE
8
BLACK
6
CONTINUOUS
10
171.1878260000000012
20
-95.690062999999995
11
158.2878259999999955
21
-95.690062999999995
0
LINE
8
BLACK
6
CONTINUOUS
10
171.6878260000000012
20
-109.0900630000000007
11
171.6878260000000012
21
-96.190062999999995
0
ARC
8
BLACK
10
158.2878269999999929
20
-96.1900639999999925
40
0.500001000001
50
90.00011459
51
179.99988541
0
ARC
8
BLACK
10
158.2878269999999929
20
-109.090061999999989
40
0.500001000001
50
-179.99988541
51
-90.00011459
0
ARC
8
BLACK
10
171.1878260000000012
20
-96.190062999999995
40
0.5
50
0.00000000
51
90.00000000
0
ARC
8
BLACK
10
171.1878260000000012
20
-109.0900630000000007
40
0.5
50
-90.00000000
51
-0.00000000
0
LINE
8
BLACK
6
CONTINUOUS
10
265.7878259999999955
20
-96.190062999999995
11
265.7878259999999955
21
-109.0900630000000007
0
LINE
8
BLACK
6
CONTINUOUS
10
266.2878259999999955
20
-109.5900630000000007
11
279.1878259999999727
21
-109.5900630000000007
0
LINE
8
BLACK
6
CONTINUOUS
10
279.1878259999999727
20
-95.690062999999995
11
266.2878259999999955
21
-95.690062999999995
0
LINE
8
BLACK
6
CONTINUOUS
10
279.6878259999999727
20
-109.0900630000000007
11
279.6878259999999727
21
-96.190062999999995
0
ARC
8
BLACK
10
266.2878269999999929
20
-96.1900639999999925
40
0.500001000001
50
90.00011459
51
179.99988541
0
ARC
8
BLACK
10
266.2878269999999929
20
-109.090061999999989
40
0.500001000001
50
-179.99988541
51
-90.00011459
0
ARC
8
BLACK
10
279.1878259999999727
20
-96.190062999999995
40
0.5
50
0.00000000
51
90.00000000
0
ARC
8
BLACK
10
279.1878259999999727
20
-109.0900630000000007
40
0.5
50
-90.00000000
51
-0.00000000
0
LINE
8
BLACK
6
CONTINUOUS
10
247.7878259999999955
20
-96.190062999999995
11
247.7878259999999955
21
-109.0900630000000007
0
LINE
8
BLACK
6
CONTINUOUS
10
248.2878259999999955
20
-109.5900630000000007
11
261.1878259999999727
21
-109.5900630000000007
0
LINE
8
BLACK
6
CONTINUOUS
10
261.1878259999999727
20
-95.690062999999995
11
248.2878259999999955
21
-95.690062999999995
0
LINE
8
BLACK
6
CONTINUOUS
10
261.6878259999999727
20
-109.0900630000000007
11
261.6878259999999727
21
-96.190062999999995
0
ARC
8
BLACK
10
248.2878269999999929
20
-96.1900639999999925
40
0.500001000001
50
90.00011459
51
179.99988541
0
ARC
8
BLACK
10
248.2878269999999929
20
-109.090061999999989
40
0.500001000001
50
-179.99988541
51
-90.00011459
0
ARC
8
BLACK
10
261.1878259999999727
20
-96.190062999999995
40
0.5
50
0.00000000
51
90.00000000
0
ARC
8
BLACK
10
261.1878259999999727
20
-109.0900630000000007
40
0.5
50
-90.00000000
51
-0.00000000
0
LINE
8
BLACK
6
CONTINUOUS
10
139.7878259999999955
20
-96.190062999999995
11
139.7878259999999955
21
-109.0900630000000007
0
LINE
8
BLACK
6
CONTINUOUS
10
140.2878259999999955
20
-109.5900630000000007
11
153.1878260000000012
21
-109.5900630000000007
0
LINE
8
BLACK
6
CONTINUOUS
10
153.1878260000000012
20
-95.690062999999995
11
140.2878259999999955
21
-95.690062999999995
0
LINE
8
BLACK
6
CONTINUOUS
10
153.6878260000000012
20
-109.0900630000000007
11
153.6878260000000012
21
-96.190062999999995
0
ARC
8
BLACK
10
140.2878269999999929
20
-96.1900639999999925
40
0.500001000001
50
90.00011459
51
179.99988541
0
ARC
8
BLACK
10
140.2878269999999929
20
-109.090061999999989
40
0.500001000001
50
-179.99988541
51
-90.00011459
0
ARC
8
BLACK
10
153.1878260000000012
20
-96.190062999999995
40
0.5
50
0.00000000
51
90.00000000
0
ARC
8
BLACK
10
153.1878260000000012
20
-109.0900630000000007
40
0.5
50
-90.00000000
51
-0.00000000
0
LINE
8
BLACK
6
CONTINUOUS
10
207.2878259999999955
20
-130.1900629999999808
11
207.2878259999999955
21
-143.0900629999999865
0
LINE
8
BLACK
6
CONTINUOUS
10
207.7878259999999955
20
-143.5900629999999865
11
220.6878260000000012
21
-143.5900629999999865
0
LINE
8
BLACK
6
CONTINUOUS
10
220.6878260000000012
20
-129.6900629999999808
11
207.7878259999999955
21
-129.6900629999999808
0
LINE
8
BLACK
6
CONTINUOUS
10
221.1878260000000012
20
-143.0900629999999865
11
221.1878260000000012
21
-130.1900629999999808
0
ARC
8
BLACK
10
207.7878269999999929
20
-130.1900640000000067
40
0.500001000001
50
90.00011459
51
179.99988541
0
ARC
8
BLACK
10
207.7878269999999929
20
-143.090061999999989
40
0.500001000001
50
-179.99988541
51
-90.00011459
0
ARC
8
BLACK
10
220.6878260000000012
20
-130.1900629999999808
40
0.5
50
0.00000000
51
90.00000000
0
ARC
8
BLACK
10
220.6878260000000012
20
-143.0900629999999865
40
0.5
50
-90.00000000
51
-0.00000000
0
LINE
8
BLACK
6
CONTINUOUS
10
234.2878259999999955
20
-113.190062999999995
11
234.2878259999999955
21
-126.0900630000000007
0
LINE
8
BLACK
6
CONTINUOUS
10
234.7878259999999955
20
-126.5900630000000007
11
247.6878260000000012
21
-126.5900630000000007
0
LINE
8
BLACK
6
CONTINUOUS
10
247.6878260000000012
20
-112.690062999999995
11
234.7878259999999955
21
-112.690062999999995
0
LINE
8
BLACK
6
CONTINUOUS
10
248.1878260000000012
20
-126.0900630000000007
11
248.1878260000000012
21
-113.190062999999995
0
ARC
8
BLACK
10
234.7878269999999929
20
-113.1900639999999925
40
0.500001000001
50
90.00011459
51
179.99988541
0
ARC
8
BLACK
10
234.7878269999999929
20
-126.090061999999989
40
0.500001000001
50
-179.99988541
51
-90.00011459
0
ARC
8
BLACK
10
247.6878260000000012
20
-113.190062999999995
40
0.5
50
0.00000000
51
90.00000000
0
ARC
8
BLACK
10
247.6878260000000012
20
-126.0900630000000007
40
0.5
50
-90.00000000
51
-0.00000000
0
LINE
8
BLACK
6
CONTINUOUS
10
175.7878259999999955
20
-96.190062999999995
11
175.7878259999999955
21
-109.0900630000000007
0
LINE
8
BLACK
6
CONTINUOUS
10
176.2878259999999955
20
-109.5900630000000007
11
189.1878260000000012
21
-109.5900630000000007
0
LINE
8
BLACK
6
CONTINUOUS
10
189.1878260000000012
20
-95.690062999999995
11
176.2878259999999955
21
-95.690062999999995
0
LINE
8
BLACK
6
CONTINUOUS
10
189.6878260000000012
20
-109.0900630000000007
11
189.6878260000000012
21
-96.190062999999995
0
ARC
8
BLACK
10
176.2878269999999929
20
-96.1900639999999925
40
0.500001000001
50
90.00011459
51
179.99988541
0
ARC
8
BLACK
10
176.2878269999999929
20
-109.090061999999989
40
0.500001000001
50
-179.99988541
51
-90.00011459
0
ARC
8
BLACK
10
189.1878260000000012
20
-96.190062999999995
40
0.5
50
0.00000000
51
90.00000000
0
ARC
8
BLACK
10
189.1878260000000012
20
-109.0900630000000007
40
0.5
50
-90.00000000
51
-0.00000000
0
LINE
8
BLACK
6
CONTINUOUS
10
211.7878259999999955
20
-96.190062999999995
11
211.7878259999999955
21
-109.0900630000000007
0
LINE
8
BLACK
6
CONTINUOUS
10
212.2878259999999955
20
-109.5900630000000007
11
225.1878260000000012
21
-109.5900630000000007
0
LINE
8
BLACK
6
CONTINUOUS
10
225.1878260000000012
20
-95.690062999999995
11
212.2878259999999955
21
-95.690062999999995
0
LINE
8
BLACK
6
CONTINUOUS
10
225.6878260000000012
20
-109.0900630000000007
11
225.6878260000000012
21
-96.190062999999995
0
ARC
8
BLACK
10
212.2878269999999929
20
-96.1900639999999925
40
0.500001000001
50
90.00011459
51
179.99988541
0
ARC
8
BLACK
10
212.2878269999999929
20
-109.090061999999989
40
0.500001000001
50
-179.99988541
51
-90.00011459
0
ARC
8
BLACK
10
225.1878260000000012
20
-96.190062999999995
40
0.5
50
0.00000000
51
90.00000000
0
ARC
8
BLACK
10
225.1878260000000012
20
-109.0900630000000007
40
0.5
50
-90.00000000
51
-0.00000000
0
LINE
8
BLACK
6
CONTINUOUS
10
121.7878259999999955
20
-147.1900629999999808
11
121.7878259999999955
21
-160.0900629999999865
0
LINE
8
BLACK
6
CONTINUOUS
10
122.2878259999999955
20
-160.5900629999999865
11
135.1878260000000012
21
-160.5900629999999865
0
LINE
8
BLACK
6
CONTINUOUS
10
135.1878260000000012
20
-146.6900629999999808
11
122.2878259999999955
21
-146.6900629999999808
0
LINE
8
BLACK
6
CONTINUOUS
10
135.6878260000000012
20
-160.0900629999999865
11
135.6878260000000012
21
-147.1900629999999808
0
ARC
8
BLACK
10
122.2878269999999929
20
-147.1900640000000067
40
0.500001000001
50
90.00011459
51
179.99988541
0
ARC
8
BLACK
10
122.2878269999999929
20
-160.090061999999989
40
0.500001000001
50
-179.99988541
51
-90.00011459
0
ARC
8
BLACK
10
135.1878260000000012
20
-147.1900629999999808
40
0.5
50
0.00000000
51
90.00000000
0
ARC
8
BLACK
10
135.1878260000000012
20
-160.0900629999999865
40
0.5
50
-90.00000000
51
-0.00000000
0
LINE
8
BLACK
6
CONTINUOUS
10
189.2878259999999955
20
-130.1900629999999808
11
189.2878259999999955
21
-143.0900629999999865
0
LINE
8
BLACK
6
CONTINUOUS
10
189.7878259999999955
20
-143.5900629999999865
11
202.6878260000000012
21
-143.5900629999999865
0
LINE
8
BLACK
6
CONTINUOUS
10
202.6878260000000012
20
-129.6900629999999808
11
189.7878259999999955
21
-129.6900629999999808
0
LINE
8
BLACK
6
CONTINUOUS
10
203.1878260000000012
20
-143.0900629999999865
11
203.1878260000000012
21
-130.1900629999999808
0
ARC
8
BLACK
10
189.7878269999999929
20
-130.1900640000000067
40
0.500001000001
50
90.00011459
51
179.99988541
0
ARC
8
BLACK
10
189.7878269999999929
20
-143.090061999999989
40
0.500001000001
50
-179.99988541
51
-90.00011459
0
ARC
8
BLACK
10
202.6878260000000012
20
-130.1900629999999808
40
0.5
50
0.00000000
51
90.00000000
0
ARC
8
BLACK
10
202.6878260000000012
20
-143.0900629999999865
40
0.5
50
-90.00000000
51
-0.00000000
0
LINE
8
BLACK
6
CONTINUOUS
10
286.0378259999999955
20
-96.190062999999995
11
286.0378259999999955
21
-109.0900630000000007
0
LINE
8
BLACK
6
CONTINUOUS
10
286.5378259999999955
20
-109.5900630000000007
11
299.4378259999999727
21
-109.5900630000000007
0
LINE
8
BLACK
6
CONTINUOUS
10
299.4378259999999727
20
-95.690062999999995
11
286.5378259999999955
21
-95.690062999999995
0
LINE
8
BLACK
6
CONTINUOUS
10
299.9378259999999727
20
-109.0900630000000007
11
299.9378259999999727
21
-96.190062999999995
0
ARC
8
BLACK
10
286.5378269999999929
20
-96.1900639999999925
40
0.500001000001
50
90.00011459
51
179.99988541
0
ARC
8
BLACK
10
286.5378269999999929
20
-109.090061999999989
40
0.500001000001
50
-179.99988541
51
-90.00011459
0
ARC
8
BLACK
10
299.4378259999999727
20
-96.190062999999995
40
0.5
50
0.00000000
51
90.00000000
0
ARC
8
BLACK
10
299.4378259999999727
20
-109.0900630000000007
40
0.5
50
-90.00000000
51
-0.00000000
0
LINE
8
BLACK
6
CONTINUOUS
10
128.5378259999999955
20
-130.1900629999999808
11
128.5378259999999955
21
-143.0900629999999865
0
LINE
8
BLACK
6
CONTINUOUS
10
129.0378259999999955
20
-143.5900629999999865
11
141.9378260000000012
21
-143.5900629999999865
0
LINE
8
BLACK
6
CONTINUOUS
10
141.9378260000000012
20
-129.6900629999999808
11
129.0378259999999955
21
-129.6900629999999808
0
LINE
8
BLACK
6
CONTINUOUS
10
142.4378260000000012
20
-143.0900629999999865
11
142.4378260000000012
21
-130.1900629999999808
0
ARC
8
BLACK
10
129.0378269999999929
20
-130.1900640000000067
40
0.500001000001
50
90.00011459
51
179.99988541
0
ARC
8
BLACK
10
129.0378269999999929
20
-143.090061999999989
40
0.500001000001
50
-179.99988541
51
-90.00011459
0
ARC
8
BLACK
10
141.9378260000000012
20
-130.1900629999999808
40
0.5
50
0.00000000
51
90.00000000
0
ARC
8
BLACK
10
141.9378260000000012
20
-143.0900629999999865
40
0.5
50
-90.00000000
51
-0.00000000
0
LINE
8
BLACK
6
CONTINUOUS
10
121.7878259999999955
20
-96.190062999999995
11
121.7878259999999955
21
-109.0900630000000007
0
LINE
8
BLACK
6
CONTINUOUS
10
122.2878259999999955
20
-109.5900630000000007
11
135.1878260000000012
21
-109.5900630000000007
0
LINE
8
BLACK
6
CONTINUOUS
10
135.1878260000000012
20
-95.690062999999995
11
122.2878259999999955
21
-95.690062999999995
0
LINE
8
BLACK
6
CONTINUOUS
10
135.6878260000000012
20
-109.0900630000000007
11
135.6878260000000012
21
-96.190062999999995
0
ARC
8
BLACK
10
122.2878269999999929
20
-96.1900639999999925
40
0.500001000001
50
90.00011459
51
179.99988541
0
ARC
8
BLACK
10
122.2878269999999929
20
-109.090061999999989
40
0.500001000001
50
-179.99988541
51
-90.00011459
0
ARC
8
BLACK
10
135.1878260000000012
20
-96.190062999999995
40
0.5
50
0.00000000
51
90.00000000
0
ARC
8
BLACK
10
135.1878260000000012
20
-109.0900630000000007
40
0.5
50
-90.00000000
51
-0.00000000
0
LINE
8
BLACK
6
CONTINUOUS
10
252.2878259999999955
20
-147.1900629999999808
11
252.2878259999999955
21
-160.0900629999999865
0
LINE
8
BLACK
6
CONTINUOUS
10
252.7878259999999955
20
-160.5900629999999865
11
265.6878259999999727
21
-160.5900629999999865
0
LINE
8
BLACK
6
CONTINUOUS
10
265.6878259999999727
20
-146.6900629999999808
11
252.7878259999999955
21
-146.6900629999999808
0
LINE
8
BLACK
6
CONTINUOUS
10
266.1878259999999727
20
-160.0900629999999865
11
266.1878259999999727
21
-147.1900629999999808
0
ARC
8
BLACK
10
252.7878269999999929
20
-147.1900640000000067
40
0.500001000001
50
90.00011459
51
179.99988541
0
ARC
8
BLACK
10
252.7878269999999929
20
-160.090061999999989
40
0.500001000001
50
-179.99988541
51
-90.00011459
0
ARC
8
BLACK
10
265.6878259999999727
20
-147.1900629999999808
40
0.5
50
0.00000000
51
90.00000000
0
ARC
8
BLACK
10
265.6878259999999727
20
-160.0900629999999865
40
0.5
50
-90.00000000
51
-0.00000000
0
LINE
8
BLACK
6
CONTINUOUS
10
198.2878259999999955
20
-113.190062999999995
11
198.2878259999999955
21
-126.0900630000000007
0
LINE
8
BLACK
6
CONTINUOUS
10
198.7878259999999955
20
-126.5900630000000007
11
211.6878260000000012
21
-126.5900630000000007
0
LINE
8
BLACK
6
CONTINUOUS
10
211.6878260000000012
20
-112.690062999999995
11
198.7878259999999955
21
-112.690062999999995
0
LINE
8
BLACK
6
CONTINUOUS
10
212.1878260000000012
20
-126.0900630000000007
11
212.1878260000000012
21
-113.190062999999995
0
ARC
8
BLACK
10
198.7878269999999929
20
-113.1900639999999925
40
0.500001000001
50
90.00011459
51
179.99988541
0
ARC
8
BLACK
10
198.7878269999999929
20
-126.090061999999989
40
0.500001000001
50
-179.99988541
51
-90.00011459
0
ARC
8
BLACK
10
211.6878260000000012
20
-113.190062999999995
40
0.5
50
0.00000000
51
90.00000000
0
ARC
8
BLACK
10
211.6878260000000012
20
-126.0900630000000007
40
0.5
50
-90.00000000
51
-0.00000000
0
LINE
8
BLACK
6
CONTINUOUS
10
193.7878259999999955
20
-96.190062999999995
11
193.7878259999999955
21
-109.0900630000000007
0
LINE
8
BLACK
6
CONTINUOUS
10
194.2878259999999955
20
-109.5900630000000007
11
207.1878260000000012
21
-109.5900630000000007
0
LINE
8
BLACK
6
CONTINUOUS
10
207.1878260000000012
20
-95.690062999999995
11
194.2878259999999955
21
-95.690062999999995
0
LINE
8
BLACK
6
CONTINUOUS
10
207.6878260000000012
20
-109.0900630000000007
11
207.6878260000000012
21
-96.190062999999995
0
ARC
8
BLACK
10
194.2878269999999929
20
-96.1900639999999925
40
0.500001000001
50
90.00011459
51
179.99988541
0
ARC
8
BLACK
10
194.2878269999999929
20
-109.090061999999989
40
0.500001000001
50
-179.99988541
51
-90.00011459
0
ARC
8
BLACK
10
207.1878260000000012
20
-96.190062999999995
40
0.5
50
0.00000000
51
90.00000000
0
ARC
8
BLACK
10
207.1878260000000012
20
-109.0900630000000007
40
0.5
50
-90.00000000
51
-0.00000000
0
LINE
8
BLACK
6
CONTINUOUS
10
270.2878259999999955
20
-147.1900629999999808
11
270.2878259999999955
21
-160.0900629999999865
0
LINE
8
BLACK
6
CONTINUOUS
10
270.7878259999999955
20
-160.5900629999999865
11
283.6878259999999727
21
-160.5900629999999865
0
LINE
8
BLACK
6
CONTINUOUS
10
283.6878259999999727
20
-146.6900629999999808
11
270.7878259999999955
21
-146.6900629999999808
0
LINE
8
BLACK
6
CONTINUOUS
10
284.1878259999999727
20
-160.0900629999999865
11
284.1878259999999727
21
-147.1900629999999808
0
ARC
8
BLACK
10
270.7878269999999929
20
-147.1900640000000067
40
0.500001000001
50
90.00011459
51
179.99988541
0
ARC
8
BLACK
10
270.7878269999999929
20
-160.090061999999989
40
0.500001000001
50
-179.99988541
51
-90.00011459
0
ARC
8
BLACK
10
283.6878259999999727
20
-147.1900629999999808
40
0.5
50
0.00000000
51
90.00000000
0
ARC
8
BLACK
10
283.6878259999999727
20
-160.0900629999999865
40
0.5
50
-90.00000000
51
-0.00000000
0
LINE
8
BLACK
6
CONTINUOUS
10
162.2878259999999955
20
-113.190062999999995
11
162.2878259999999955
21
-126.0900630000000007
0
LINE
8
BLACK
6
CONTINUOUS
10
162.7878259999999955
20
-126.5900630000000007
11
175.6878260000000012
21
-126.5900630000000007
0
LINE
8
BLACK
6
CONTINUOUS
10
175.6878260000000012
20
-112.690062999999995
11
162.7878259999999955
21
-112.690062999999995
0
LINE
8
BLACK
6
CONTINUOUS
10
176.1878260000000012
20
-126.0900630000000007
11
176.1878260000000012
21
-113.190062999999995
0
ARC
8
BLACK
10
162.7878269999999929
20
-113.1900639999999925
40
0.500001000001
50
90.00011459
51
179.99988541
0
ARC
8
BLACK
10
162.7878269999999929
20
-126.090061999999989
40
0.500001000001
50
-179.99988541
51
-90.00011459
0
ARC
8
BLACK
10
175.6878260000000012
20
-113.190062999999995
40
0.5
50
0.00000000
51
90.00000000
0
ARC
8
BLACK
10
175.6878260000000012
20
-126.0900630000000007
40
0.5
50
-90.00000000
51
-0.00000000
0
LINE
8
BLACK
6
CONTINUOUS
10
144.2878259999999955
20
-113.190062999999995
11
144.2878259999999955
21
-126.0900630000000007
0
LINE
8
BLACK
6
CONTINUOUS
10
144.7878259999999955
20
-126.5900630000000007
11
157.6878260000000012
21
-126.5900630000000007
0
LINE
8
BLACK
6
CONTINUOUS
10
157.6878260000000012
20
-112.690062999999995
11
144.7878259999999955
21
-112.690062999999995
0
LINE
8
BLACK
6
CONTINUOUS
10
158.1878260000000012
20
-126.0900630000000007
11
158.1878260000000012
21
-113.190062999999995
0
ARC
8
BLACK
10
144.7878269999999929
20
-113.1900639999999925
40
0.500001000001
50
90.00011459
51
179.99988541
0
ARC
8
BLACK
10
144.7878269999999929
20
-126.090061999999989
40
0.500001000001
50
-179.99988541
51
-90.00011459
0
ARC
8
BLACK
10
157.6878260000000012
20
-113.190062999999995
40
0.5
50
0.00000000
51
90.00000000
0
ARC
8
BLACK
10
157.6878260000000012
20
-126.0900630000000007
40
0.5
50
-90.00000000
51
-0.00000000
0
LINE
8
BLACK
6
CONTINUOUS
10
283.7878259999999955
20
-130.1900629999999808
11
283.7878259999999955
21
-143.0900629999999865
0
LINE
8
BLACK
6
CONTINUOUS
10
284.2878259999999955
20
-143.5900629999999865
11
297.1878259999999727
21
-143.5900629999999865
0
LINE
8
BLACK
6
CONTINUOUS
10
297.1878259999999727
20
-129.6900629999999808
11
284.2878259999999955
21
-129.6900629999999808
0
LINE
8
BLACK
6
CONTINUOUS
10
297.6878259999999727
20
-143.0900629999999865
11
297.6878259999999727
21
-130.1900629999999808
0
ARC
8
BLACK
10
284.2878269999999929
20
-130.1900640000000067
40
0.500001000001
50
90.00011459
51
179.99988541
0
ARC
8
BLACK
10
284.2878269999999929
20
-143.090061999999989
40
0.500001000001
50
-179.99988541
51
-90.00011459
0
ARC
8
BLACK
10
297.1878259999999727
20
-130.1900629999999808
40
0.5
50
0.00000000
51
90.00000000
0
ARC
8
BLACK
10
297.1878259999999727
20
-143.0900629999999865
40
0.5
50
-90.00000000
51
-0.00000000
0
LINE
8
BLACK
6
CONTINUOUS
10
270.2878259999999955
20
-113.190062999999995
11
270.2878259999999955
21
-126.0900630000000007
0
LINE
8
BLACK
6
CONTINUOUS
10
270.7878259999999955
20
-126.5900630000000007
11
283.6878259999999727
21
-126.5900630000000007
0
LINE
8
BLACK
6
CONTINUOUS
10
283.6878259999999727
20
-112.690062999999995
11
270.7878259999999955
21
-112.690062999999995
0
LINE
8
BLACK
6
CONTINUOUS
10
284.1878259999999727
20
-126.0900630000000007
11
284.1878259999999727
21
-113.190062999999995
0
ARC
8
BLACK
10
270.7878269999999929
20
-113.1900639999999925
40
0.500001000001
50
90.00011459
51
179.99988541
0
ARC
8
BLACK
10
270.7878269999999929
20
-126.090061999999989
40
0.500001000001
50
-179.99988541
51
-90.00011459
0
ARC
8
BLACK
10
283.6878259999999727
20
-113.190062999999995
40
0.5
50
0.00000000
51
90.00000000
0
ARC
8
BLACK
10
283.6878259999999727
20
-126.0900630000000007
40
0.5
50
-90.00000000
51
-0.00000000
0
LINE
8
BLACK
6
CONTINUOUS
10
139.7878259999999955
20
-147.1900629999999808
11
139.7878259999999955
21
-160.0900629999999865
0
LINE
8
BLACK
6
CONTINUOUS
10
140.2878259999999955
20
-160.5900629999999865
11
153.1878260000000012
21
-160.5900629999999865
0
LINE
8
BLACK
6
CONTINUOUS
10
153.1878260000000012
20
-146.6900629999999808
11
140.2878259999999955
21
-146.6900629999999808
0
LINE
8
BLACK
6
CONTINUOUS
10
153.6878260000000012
20
-160.0900629999999865
11
153.6878260000000012
21
-147.1900629999999808
0
ARC
8
BLACK
10
140.2878269999999929
20
-147.1900640000000067
40
0.500001000001
50
90.00011459
51
179.99988541
0
ARC
8
BLACK
10
140.2878269999999929
20
-160.090061999999989
40
0.500001000001
50
-179.99988541
51
-90.00011459
0
ARC
8
BLACK
10
153.1878260000000012
20
-147.1900629999999808
40
0.5
50
0.00000000
51
90.00000000
0
ARC
8
BLACK
10
153.1878260000000012
20
-160.0900629999999865
40
0.5
50
-90.00000000
51
-0.00000000
0
LINE
8
BLACK
6
CONTINUOUS
10
124.0378259999999955
20
-113.190062999999995
11
124.0378259999999955
21
-126.0900630000000007
0
LINE
8
BLACK
6
CONTINUOUS
10
124.5378259999999955
20
-126.5900630000000007
11
137.4378260000000012
21
-126.5900630000000007
0
LINE
8
BLACK
6
CONTINUOUS
10
137.4378260000000012
20
-112.690062999999995
11
124.5378259999999955
21
-112.690062999999995
0
LINE
8
BLACK
6
CONTINUOUS
10
137.9378260000000012
20
-126.0900630000000007
11
137.9378260000000012
21
-113.190062999999995
0
ARC
8
BLACK
10
124.5378259999999955
20
-113.190062999999995
40
0.5
50
90.00000000
51
180.00000000
0
ARC
8
BLACK
10
124.5378259999999955
20
-126.0900630000000007
40
0.5
50
-180.00000000
51
-90.00000000
0
ARC
8
BLACK
10
137.4378250000000037
20
-113.1900639999999925
40
0.500001000001
50
0.00011459
51
89.99988541
0
ARC
8
BLACK
10
137.4378250000000037
20
-126.090061999999989
40
0.500001000001
50
-89.99988541
51
-0.00011459
0
LINE
8
BLACK
6
CONTINUOUS
10
261.2878259999999955
20
-130.1900629999999808
11
261.2878259999999955
21
-143.0900629999999865
0
LINE
8
BLACK
6
CONTINUOUS
10
261.7878259999999955
20
-143.5900629999999865
11
274.6878259999999727
21
-143.5900629999999865
0
LINE
8
BLACK
6
CONTINUOUS
10
274.6878259999999727
20
-129.6900629999999808
11
261.7878259999999955
21
-129.6900629999999808
0
LINE
8
BLACK
6
CONTINUOUS
10
275.1878259999999727
20
-143.0900629999999865
11
275.1878259999999727
21
-130.1900629999999808
0
ARC
8
BLACK
10
261.7878269999999929
20
-130.1900640000000067
40
0.500001000001
50
90.00011459
51
179.99988541
0
ARC
8
BLACK
10
261.7878269999999929
20
-143.090061999999989
40
0.500001000001
50
-179.99988541
51
-90.00011459
0
ARC
8
BLACK
10
274.6878259999999727
20
-130.1900629999999808
40
0.5
50
0.00000000
51
90.00000000
0
ARC
8
BLACK
10
274.6878259999999727
20
-143.0900629999999865
40
0.5
50
-90.00000000
51
-0.00000000
0
LINE
8
BLACK
6
CONTINUOUS
10
252.2878259999999955
20
-113.190062999999995
11
252.2878259999999955
21
-126.0900630000000007
0
LINE
8
BLACK
6
CONTINUOUS
10
252.7878259999999955
20
-126.5900630000000007
11
265.6878259999999727
21
-126.5900630000000007
0
LINE
8
BLACK
6
CONTINUOUS
10
265.6878259999999727
20
-112.690062999999995
11
252.7878259999999955
21
-112.690062999999995
0
LINE
8
BLACK
6
CONTINUOUS
10
266.1878259999999727
20
-126.0900630000000007
11
266.1878259999999727
21
-113.190062999999995
0
ARC
8
BLACK
10
252.7878269999999929
20
-113.1900639999999925
40
0.500001000001
50
90.00011459
51
179.99988541
0
ARC
8
BLACK
10
252.7878269999999929
20
-126.090061999999989
40
0.500001000001
50
-179.99988541
51
-90.00011459
0
ARC
8
BLACK
10
265.6878259999999727
20
-113.190062999999995
40
0.5
50
0.00000000
51
90.00000000
0
ARC
8
BLACK
10
265.6878259999999727
20
-126.0900630000000007
40
0.5
50
-90.00000000
51
-0.00000000
0
LINE
8
BLACK
6
CONTINUOUS
10
171.2878259999999955
20
-130.1900629999999808
11
171.2878259999999955
21
-143.0900629999999865
0
LINE
8
BLACK
6
CONTINUOUS
10
171.7878259999999955
20
-143.5900629999999865
11
184.6878260000000012
21
-143.5900629999999865
0
LINE
8
BLACK
6
CONTINUOUS
10
184.6878260000000012
20
-129.6900629999999808
11
171.7878259999999955
21
-129.6900629999999808
0
LINE
8
BLACK
6
CONTINUOUS
10
185.1878260000000012
20
-143.0900629999999865
11
185.1878260000000012
21
-130.1900629999999808
0
ARC
8
BLACK
10
171.7878269999999929
20
-130.1900640000000067
40
0.500001000001
50
90.00011459
51
179.99988541
0
ARC
8
BLACK
10
171.7878269999999929
20
-143.090061999999989
40
0.500001000001
50
-179.99988541
51
-90.00011459
0
ARC
8
BLACK
10
184.6878260000000012
20
-130.1900629999999808
40
0.5
50
0.00000000
51
90.00000000
0
ARC
8
BLACK
10
184.6878260000000012
20
-143.0900629999999865
40
0.5
50
-90.00000000
51
-0.00000000
0
LINE
8
BLACK
6
CONTINUOUS
10
180.2878259999999955
20
-113.190062999999995
11
180.2878259999999955
21
-126.0900630000000007
0
LINE
8
BLACK
6
CONTINUOUS
10
180.7878259999999955
20
-126.5900630000000007
11
193.6878260000000012
21
-126.5900630000000007
0
LINE
8
BLACK
6
CONTINUOUS
10
193.6878260000000012
20
-112.690062999999995
11
180.7878259999999955
21
-112.690062999999995
0
LINE
8
BLACK
6
CONTINUOUS
10
194.1878260000000012
20
-126.0900630000000007
11
194.1878260000000012
21
-113.190062999999995
0
ARC
8
BLACK
10
180.7878269999999929
20
-113.1900639999999925
40
0.500001000001
50
90.00011459
51
179.99988541
0
ARC
8
BLACK
10
180.7878269999999929
20
-126.090061999999989
40
0.500001000001
50
-179.99988541
51
-90.00011459
0
ARC
8
BLACK
10
193.6878260000000012
20
-113.190062999999995
40
0.5
50
0.00000000
51
90.00000000
0
ARC
8
BLACK
10
193.6878260000000012
20
-126.0900630000000007
40
0.5
50
-90.00000000
51
-0.00000000
0
LINE
8
BLACK
6
CONTINUOUS
10
288.2878259999999955
20
-147.1900629999999808
11
288.2878259999999955
21
-160.0900629999999865
0
LINE
8
BLACK
6
CONTINUOUS
10
288.7878259999999955
20
-160.5900629999999865
11
301.6878259999999727
21
-160.5900629999999865
0
LINE
8
BLACK
6
CONTINUOUS
10
301.6878259999999727
20
-146.6900629999999808
11
288.7878259999999955
21
-146.6900629999999808
0
LINE
8
BLACK
6
CONTINUOUS
10
302.1878259999999727
20
-160.0900629999999865
11
302.1878259999999727
21
-147.1900629999999808
0
ARC
8
BLACK
10
288.7878269999999929
20
-147.1900640000000067
40
0.500001000001
50
90.00011459
51
179.99988541
0
ARC
8
BLACK
10
288.7878269999999929
20
-160.090061999999989
40
0.500001000001
50
-179.99988541
51
-90.00011459
0
ARC
8
BLACK
10
301.6878259999999727
20
-147.1900629999999808
40
0.5
50
0.00000000
51
90.00000000
0
ARC
8
BLACK
10
301.6878259999999727
20
-160.0900629999999865
40
0.5
50
-90.00000000
51
-0.00000000
0
LINE
8
BLACK
6
CONTINUOUS
10
216.2878259999999955
20
-113.190062999999995
11
216.2878259999999955
21
-126.0900630000000007
0
LINE
8
BLACK
6
CONTINUOUS
10
216.7878259999999955
20
-126.5900630000000007
11
229.6878260000000012
21
-126.5900630000000007
0
LINE
8
BLACK
6
CONTINUOUS
10
229.6878260000000012
20
-112.690062999999995
11
216.7878259999999955
21
-112.690062999999995
0
LINE
8
BLACK
6
CONTINUOUS
10
230.1878260000000012
20
-126.0900630000000007
11
230.1878260000000012
21
-113.190062999999995
0
ARC
8
BLACK
10
216.7878269999999929
20
-113.1900639999999925
40
0.500001000001
50
90.00011459
51
179.99988541
0
ARC
8
BLACK
10
216.7878269999999929
20
-126.090061999999989
40
0.500001000001
50
-179.99988541
51
-90.00011459
0
ARC
8
BLACK
10
229.6878260000000012
20
-113.190062999999995
40
0.5
50
0.00000000
51
90.00000000
0
ARC
8
BLACK
10
229.6878260000000012
20
-126.0900630000000007
40
0.5
50
-90.00000000
51
-0.00000000
0
LINE
8
BLACK
6
CONTINUOUS
10
288.2878259999999955
20
-113.190062999999995
11
288.2878259999999955
21
-126.0900630000000007
0
LINE
8
BLACK
6
CONTINUOUS
10
288.7878259999999955
20
-126.5900630000000007
11
301.6878259999999727
21
-126.5900630000000007
0
LINE
8
BLACK
6
CONTINUOUS
10
301.6878259999999727
20
-112.690062999999995
11
288.7878259999999955
21
-112.690062999999995
0
LINE
8
BLACK
6
CONTINUOUS
10
302.1878259999999727
20
-126.0900630000000007
11
302.1878259999999727
21
-113.190062999999995
0
ARC
8
BLACK
10
288.7878269999999929
20
-113.1900639999999925
40
0.500001000001
50
90.00011459
51
179.99988541
0
ARC
8
BLACK
10
288.7878269999999929
20
-126.090061999999989
40
0.500001000001
50
-179.99988541
51
-90.00011459
0
ARC
8
BLACK
10
301.6878259999999727
20
-113.190062999999995
40
0.5
50
0.00000000
51
90.00000000
0
ARC
8
BLACK
10
301.6878259999999727
20
-126.0900630000000007
40
0.5
50
-90.00000000
51
-0.00000000
0
LINE
8
BLACK
6
CONTINUOUS
10
243.2828069999999911
20
-130.1900629999999808
11
243.2828069999999911
21
-143.0900629999999865
0
LINE
8
BLACK
6
CONTINUOUS
10
243.7828069999999911
20
-143.5900629999999865
11
256.6828069999999684
21
-143.5900629999999865
0
LINE
8
BLACK
6
CONTINUOUS
10
256.6828069999999684
20
-129.6900629999999808
11
243.7828069999999911
21
-129.6900629999999808
0
LINE
8
BLACK
6
CONTINUOUS
10
257.1828069999999684
20
-143.0900629999999865
11
257.1828069999999684
21
-130.1900629999999808
0
ARC
8
BLACK
10
243.7828079999999886
20
-130.1900640000000067
40
0.500001000001
50
90.00011459
51
179.99988541
0
ARC
8
BLACK
10
243.7828079999999886
20
-143.090061999999989
40
0.500001000001
50
-179.99988541
51
-90.00011459
0
ARC
8
BLACK
10
256.6828069999999684
20
-130.1900629999999808
40
0.5
50
0.00000000
51
90.00000000
0
ARC
8
BLACK
10
256.6828069999999684
20
-143.0900629999999865
40
0.5
50
-90.00000000
51
-0.00000000
0
LINE
8
BLACK
6
CONTINUOUS
10
217.0878259999999784
20
-156.1900629999999808
11
217.0878259999999784
21
-150.3400629999999865
0
LINE
8
BLACK
6
CONTINUOUS
10
217.5878259999999784
20
-149.8400629999999865
11
217.9378260000000012
21
-149.8400629999999865
0
LINE
8
BLACK
6
CONTINUOUS
10
217.5878259999999784
20
-156.6900629999999808
11
222.8878259999999898
21
-156.6900629999999808
0
LINE
8
BLACK
6
CONTINUOUS
10
218.4378260000000012
20
-149.3400629999999865
11
218.4378260000000012
21
-145.6900629999999808
0
LINE
8
BLACK
6
CONTINUOUS
10
218.9378260000000012
20
-145.1900629999999808
11
221.5378259999999955
21
-145.1900629999999808
0
LINE
8
BLACK
6
CONTINUOUS
10
222.0378259999999955
20
-149.3400629999999865
11
222.0378259999999955
21
-145.6900629999999808
0
LINE
8
BLACK
6
CONTINUOUS
10
222.8878259999999898
20
-149.8400629999999865
11
222.5378259999999955
21
-149.8400629999999865
0
LINE
8
BLACK
6
CONTINUOUS
10
223.3878259999999898
20
-156.1900629999999808
11
223.3878259999999898
21
-150.3400629999999865
0
LINE
8
BLACK
6
CONTINUOUS
10
241.0878259999999784
20
-156.1900629999999808
11
241.0878259999999784
21
-150.3400629999999865
0
LINE
8
BLACK
6
CONTINUOUS
10
241.5878259999999784
20
-149.8400629999999865
11
241.9378260000000012
21
-149.8400629999999865
0
LINE
8
BLACK
6
CONTINUOUS
10
242.4378260000000012
20
-149.3400629999999865
11
242.4378260000000012
21
-145.6900629999999808
0
LINE
8
BLACK
6
CONTINUOUS
10
245.5378259999999955
20
-145.1900629999999808
11
242.9378260000000012
21
-145.1900629999999808
0
LINE
8
BLACK
6
CONTINUOUS
10
246.0378259999999955
20
-149.3400629999999865
11
246.0378259999999955
21
-145.6900629999999808
0
LINE
8
BLACK
6
CONTINUOUS
10
246.8878259999999898
20
-149.8400629999999865
11
246.5378259999999955
21
-149.8400629999999865
0
LINE
8
BLACK
6
CONTINUOUS
10
246.8878259999999898
20
-156.6900629999999808
11
241.5878259999999784
21
-156.6900629999999808
0
LINE
8
BLACK
6
CONTINUOUS
10
247.3878259999999898
20
-156.1900629999999808
11
247.3878259999999898
21
-150.3400629999999865
0
ARC
8
BLACK
10
217.5878270000000043
20
-150.3400639999999839
40
0.500001000001
50
90.00011459
51
179.99988541
0
ARC
8
BLACK
10
217.5878270000000043
20
-156.1900619999999833
40
0.500001000001
50
-179.99988541
51
-90.00011459
0
ARC
8
BLACK
10
218.9378269999999986
20
-145.6900640000000067
40
0.500001000001
50
90.00011459
51
179.99988541
0
ARC
8
BLACK
10
217.9378250000000037
20
-149.340061999999989
40
0.500001000001
50
-89.99988541
51
-0.00011459
0
ARC
8
BLACK
10
221.537824999999998
20
-145.6900640000000067
40
0.500001000001
50
0.00011459
51
89.99988541
0
ARC
8
BLACK
10
222.5378269999999929
20
-149.340061999999989
40
0.500001000001
50
-179.99988541
51
-90.00011459
0
ARC
8
BLACK
10
222.8878249999999923
20
-150.3400639999999839
40
0.500001000001
50
0.00011459
51
89.99988541
0
ARC
8
BLACK
10
222.8878249999999923
20
-156.1900619999999833
40
0.500001000001
50
-89.99988541
51
-0.00011459
0
ARC
8
BLACK
10
241.5878259999999784
20
-150.3400629999999865
40
0.5
50
90.00000000
51
180.00000000
0
ARC
8
BLACK
10
241.5878259999999784
20
-156.1900629999999808
40
0.5
50
-180.00000000
51
-90.00000000
0
ARC
8
BLACK
10
242.9378260000000012
20
-145.6900629999999808
40
0.5
50
90.00000000
51
180.00000000
0
ARC
8
BLACK
10
241.9378260000000012
20
-149.3400629999999865
40
0.5
50
-90.00000000
51
-0.00000000
0
ARC
8
BLACK
10
245.5378259999999955
20
-145.6900629999999808
40
0.5
50
0.00000000
51
90.00000000
0
ARC
8
BLACK
10
246.5378259999999955
20
-149.3400629999999865
40
0.5
50
-180.00000000
51
-90.00000000
0
ARC
8
BLACK
10
246.8878259999999898
20
-150.3400629999999865
40
0.5
50
0.00000000
51
90.00000000
0
ARC
8
BLACK
10
246.8878259999999898
20
-156.1900629999999808
40
0.5
50
-90.00000000
51
-0.00000000
  0
ENDSEC
  0
EOF
