<?xml version="1.0" standalone="no"?>
 <!DOCTYPE svg PUBLIC "-//W3C//DTD SVG 1.1//EN" 
 "http://www.w3.org/Graphics/SVG/1.1/DTD/svg11.dtd"> 
<svg
  xmlns:svg="http://www.w3.org/2000/svg"
  xmlns="http://www.w3.org/2000/svg"
  xmlns:xlink="http://www.w3.org/1999/xlink"
  version="1.1"
  width="419.9890mm" height="297.0022mm" viewBox="0.0000 0.0000 419.9890 297.0022">
<title>SVG Image created as Ciao!-Edge_Cuts.svg date 2025/06/03 14:50:56 </title>
  <desc>Image generated by PCBNEW </desc>
<g style="fill:#000000; fill-opacity:1.0000;stroke:#000000; stroke-opacity:1.0000;
stroke-linecap:round; stroke-linejoin:round;"
 transform="translate(0 0) scale(1 1)">
</g>
<g style="fill:none; 
stroke:#000000; stroke-width:0.0500; stroke-opacity:1; 
stroke-linecap:round; stroke-linejoin:round;">
<path d="M116.7631 160.1401
L116.7631 96.1401
" />
<path d="M116.7631 160.1401 A5.0000 5.0000 0.0 0 0 121.7631 165.1401" />
<path d="M302.2378 165.1401 A5.0000 5.0000 0.0 0 0 307.2378 160.1401" />
<path d="M307.2378 96.1401
L307.2378 160.1401
" />
<path d="M121.7631 91.1401
L302.2378 91.1401
" />
<path d="M307.2378 96.1401 A5.0000 5.0000 0.0 0 0 302.2378 91.1401" />
<path d="M121.7631 91.1401 A5.0000 5.0000 0.0 0 0 116.7631 96.1401" />
<path d="M302.2378 165.1401
L121.7631 165.1401
" />
</g>
<g style="fill:none; 
stroke:#000000; stroke-width:0.1200; stroke-opacity:1; 
stroke-linecap:round; stroke-linejoin:round;">
<path d="M217.6178 150.4401
L217.6178 155.9401
" />
<path d="M217.6178 150.4401
L222.9178 150.4401
" />
<path d="M217.6178 155.9401
L222.9178 155.9401
" />
<path d="M218.2678 144.6401
L218.2678 148.1401
" />
<path d="M218.2678 144.6401
L222.2678 144.6401
" />
<path d="M218.2678 148.1401
L222.2678 148.1401
" />
<path d="M222.2678 148.1401
L222.2678 144.6401
" />
<path d="M222.9178 155.9401
L222.9178 150.4401
" />
<path d="M241.6178 150.4401
L241.6178 155.9401
" />
<path d="M241.6178 150.4401
L246.9178 150.4401
" />
<path d="M241.6178 155.9401
L246.9178 155.9401
" />
<path d="M242.2678 144.6401
L242.2678 148.1401
" />
<path d="M242.2678 144.6401
L246.2678 144.6401
" />
<path d="M242.2678 148.1401
L246.2678 148.1401
" />
<path d="M246.2678 148.1401
L246.2678 144.6401
" />
<path d="M246.9178 155.9401
L246.9178 150.4401
" />
<path d="M179.3478 150.3801
L179.3478 155.8801
" />
<path d="M179.3478 150.3801
L184.6478 150.3801
" />
<path d="M179.3478 155.8801
L184.6478 155.8801
" />
<path d="M179.9978 144.5801
L179.9978 148.0801
" />
<path d="M179.9978 144.5801
L183.9978 144.5801
" />
<path d="M179.9978 148.0801
L183.9978 148.0801
" />
<path d="M183.9978 148.0801
L183.9978 144.5801
" />
<path d="M184.6478 155.8801
L184.6478 150.3801
" />
<path d="M203.3478 150.3801
L203.3478 155.8801
" />
<path d="M203.3478 150.3801
L208.6478 150.3801
" />
<path d="M203.3478 155.8801
L208.6478 155.8801
" />
<path d="M203.9978 144.5801
L203.9978 148.0801
" />
<path d="M203.9978 144.5801
L207.9978 144.5801
" />
<path d="M203.9978 148.0801
L207.9978 148.0801
" />
<path d="M207.9978 148.0801
L207.9978 144.5801
" />
<path d="M208.6478 155.8801
L208.6478 150.3801
" />
</g> 
</svg>
